<svg width="41" height="41" viewBox="0 0 41 41" fill="none" xmlns="http://www.w3.org/2000/svg">
<mask id="path-1-inside-1_252_418" fill="white">
<path d="M13.3258 25.625C13.0539 25.625 12.7932 25.517 12.601 25.3247C12.4088 25.1325 12.3008 24.8718 12.3008 24.6C12.3008 24.3281 12.4088 24.0674 12.601 23.8752C12.7932 23.6829 13.0539 23.575 13.3258 23.575H27.6758C27.9476 23.575 28.2083 23.6829 28.4006 23.8752C28.5928 24.0674 28.7008 24.3281 28.7008 24.6C28.7008 24.8718 28.5928 25.1325 28.4006 25.3247C28.2083 25.517 27.9476 25.625 27.6758 25.625H13.3258ZM13.3258 30.75C13.0539 30.75 12.7932 30.642 12.601 30.4497C12.4088 30.2575 12.3008 29.9968 12.3008 29.725C12.3008 29.4531 12.4088 29.1924 12.601 29.0002C12.7932 28.8079 13.0539 28.7 13.3258 28.7H27.6758C27.9476 28.7 28.2083 28.8079 28.4006 29.0002C28.5928 29.1924 28.7008 29.4531 28.7008 29.725C28.7008 29.9968 28.5928 30.2575 28.4006 30.4497C28.2083 30.642 27.9476 30.75 27.6758 30.75H13.3258Z"/>
</mask>
<path d="M13.3258 25.625C13.0539 25.625 12.7932 25.517 12.601 25.3247C12.4088 25.1325 12.3008 24.8718 12.3008 24.6C12.3008 24.3281 12.4088 24.0674 12.601 23.8752C12.7932 23.6829 13.0539 23.575 13.3258 23.575H27.6758C27.9476 23.575 28.2083 23.6829 28.4006 23.8752C28.5928 24.0674 28.7008 24.3281 28.7008 24.6C28.7008 24.8718 28.5928 25.1325 28.4006 25.3247C28.2083 25.517 27.9476 25.625 27.6758 25.625H13.3258ZM13.3258 30.75C13.0539 30.75 12.7932 30.642 12.601 30.4497C12.4088 30.2575 12.3008 29.9968 12.3008 29.725C12.3008 29.4531 12.4088 29.1924 12.601 29.0002C12.7932 28.8079 13.0539 28.7 13.3258 28.7H27.6758C27.9476 28.7 28.2083 28.8079 28.4006 29.0002C28.5928 29.1924 28.7008 29.4531 28.7008 29.725C28.7008 29.9968 28.5928 30.2575 28.4006 30.4497C28.2083 30.642 27.9476 30.75 27.6758 30.75H13.3258Z" fill="#181818"/>
<path d="M28.4006 23.8752L26.2792 25.9965L28.4006 23.8752ZM28.4006 25.3247L26.2792 23.2034L28.4006 25.3247ZM28.4006 29.0002L26.2792 31.1215L28.4006 29.0002ZM28.4006 30.4497L26.2792 28.3284L28.4006 30.4497ZM13.3258 22.625C13.8496 22.625 14.3519 22.833 14.7223 23.2034L10.4797 27.4461C11.2345 28.2009 12.2583 28.625 13.3258 28.625V22.625ZM14.7223 23.2034C15.0927 23.5738 15.3008 24.0761 15.3008 24.6H9.30078C9.30078 25.6674 9.72484 26.6912 10.4797 27.4461L14.7223 23.2034ZM15.3008 24.6C15.3008 25.1238 15.0927 25.6261 14.7223 25.9965L10.4797 21.7538C9.72484 22.5087 9.30078 23.5325 9.30078 24.6H15.3008ZM14.7223 25.9965C14.3519 26.3669 13.8496 26.575 13.3258 26.575V20.575C12.2583 20.575 11.2345 20.999 10.4797 21.7538L14.7223 25.9965ZM13.3258 26.575H27.6758V20.575H13.3258V26.575ZM27.6758 26.575C27.152 26.575 26.6496 26.3669 26.2792 25.9965L30.5219 21.7538C29.767 20.999 28.7433 20.575 27.6758 20.575V26.575ZM26.2792 25.9965C25.9089 25.6261 25.7008 25.1237 25.7008 24.6H31.7008C31.7008 23.5325 31.2767 22.5087 30.5219 21.7538L26.2792 25.9965ZM25.7008 24.6C25.7008 24.0762 25.9089 23.5738 26.2792 23.2034L30.5219 27.4461C31.2767 26.6912 31.7008 25.6674 31.7008 24.6H25.7008ZM26.2792 23.2034C26.6496 22.833 27.152 22.625 27.6758 22.625V28.625C28.7433 28.625 29.767 28.2009 30.5219 27.4461L26.2792 23.2034ZM27.6758 22.625H13.3258V28.625H27.6758V22.625ZM13.3258 27.75C13.8496 27.75 14.3519 27.958 14.7223 28.3284L10.4797 32.5711C11.2345 33.3259 12.2583 33.75 13.3258 33.75V27.75ZM14.7223 28.3284C15.0927 28.6988 15.3008 29.2012 15.3008 29.725H9.30078C9.30078 30.7924 9.72484 31.8162 10.4797 32.5711L14.7223 28.3284ZM15.3008 29.725C15.3008 30.2488 15.0927 30.7511 14.7223 31.1215L10.4797 26.8788C9.72484 27.6337 9.30078 28.6575 9.30078 29.725H15.3008ZM14.7223 31.1215C14.3519 31.4919 13.8496 31.7 13.3258 31.7V25.7C12.2583 25.7 11.2345 26.124 10.4797 26.8788L14.7223 31.1215ZM13.3258 31.7H27.6758V25.7H13.3258V31.7ZM27.6758 31.7C27.152 31.7 26.6496 31.4919 26.2792 31.1215L30.5219 26.8788C29.767 26.124 28.7433 25.7 27.6758 25.7V31.7ZM26.2792 31.1215C25.9089 30.7511 25.7008 30.2487 25.7008 29.725H31.7008C31.7008 28.6575 31.2767 27.6337 30.5219 26.8788L26.2792 31.1215ZM25.7008 29.725C25.7008 29.2012 25.9089 28.6988 26.2792 28.3284L30.5219 32.5711C31.2767 31.8162 31.7008 30.7924 31.7008 29.725H25.7008ZM26.2792 28.3284C26.6496 27.958 27.152 27.75 27.6758 27.75V33.75C28.7433 33.75 29.767 33.3259 30.5219 32.5711L26.2792 28.3284ZM27.6758 27.75H13.3258V33.75H27.6758V27.75Z" fill="black" mask="url(#path-1-inside-1_252_418)"/>
<mask id="path-3-inside-2_252_418" fill="white">
<path fill-rule="evenodd" clip-rule="evenodd" d="M22.9296 2.05005H9.22539C8.40985 2.05005 7.62771 2.37402 7.05104 2.9507C6.47436 3.52737 6.15039 4.30951 6.15039 5.12505V35.8751C6.15039 36.6906 6.47436 37.4727 7.05104 38.0494C7.62771 38.6261 8.40985 38.9501 9.22539 38.9501H31.7754C32.5909 38.9501 33.3731 38.6261 33.9497 38.0494C34.5264 37.4727 34.8504 36.6906 34.8504 35.8751V14.7642C34.8502 13.9943 34.5612 13.2526 34.0406 12.6855L25.1969 3.04635C24.9087 2.73218 24.5583 2.48137 24.168 2.30985C23.7777 2.13834 23.356 2.04987 22.9296 2.05005ZM8.20039 5.12505C8.20039 4.8532 8.30838 4.59249 8.50061 4.40027C8.69283 4.20804 8.95354 4.10005 9.22539 4.10005H22.9296C23.0719 4.09989 23.2126 4.12934 23.3428 4.18651C23.473 4.24369 23.5899 4.32734 23.6861 4.43215L32.5298 14.0713C32.7036 14.2602 32.8001 14.5074 32.8004 14.7642V35.8751C32.8004 36.1469 32.6924 36.4076 32.5002 36.5998C32.308 36.7921 32.0472 36.9001 31.7754 36.9001H9.22539C8.95354 36.9001 8.69283 36.7921 8.50061 36.5998C8.30838 36.4076 8.20039 36.1469 8.20039 35.8751V5.12505Z"/>
</mask>
<path fill-rule="evenodd" clip-rule="evenodd" d="M22.9296 2.05005H9.22539C8.40985 2.05005 7.62771 2.37402 7.05104 2.9507C6.47436 3.52737 6.15039 4.30951 6.15039 5.12505V35.8751C6.15039 36.6906 6.47436 37.4727 7.05104 38.0494C7.62771 38.6261 8.40985 38.9501 9.22539 38.9501H31.7754C32.5909 38.9501 33.3731 38.6261 33.9497 38.0494C34.5264 37.4727 34.8504 36.6906 34.8504 35.8751V14.7642C34.8502 13.9943 34.5612 13.2526 34.0406 12.6855L25.1969 3.04635C24.9087 2.73218 24.5583 2.48137 24.168 2.30985C23.7777 2.13834 23.356 2.04987 22.9296 2.05005ZM8.20039 5.12505C8.20039 4.8532 8.30838 4.59249 8.50061 4.40027C8.69283 4.20804 8.95354 4.10005 9.22539 4.10005H22.9296C23.0719 4.09989 23.2126 4.12934 23.3428 4.18651C23.473 4.24369 23.5899 4.32734 23.6861 4.43215L32.5298 14.0713C32.7036 14.2602 32.8001 14.5074 32.8004 14.7642V35.8751C32.8004 36.1469 32.6924 36.4076 32.5002 36.5998C32.308 36.7921 32.0472 36.9001 31.7754 36.9001H9.22539C8.95354 36.9001 8.69283 36.7921 8.50061 36.5998C8.30838 36.4076 8.20039 36.1469 8.20039 35.8751V5.12505Z" fill="#181818"/>
<path d="M22.9296 2.05005V5.05005L22.9309 5.05005L22.9296 2.05005ZM9.22539 2.05005V-0.949951V2.05005ZM34.8504 14.7642H37.8504V14.7634L34.8504 14.7642ZM34.0406 12.6855L31.8301 14.7136L31.8306 14.7142L34.0406 12.6855ZM25.1969 3.04635L22.9862 5.07435L22.9864 5.0745L25.1969 3.04635ZM8.20039 5.12505H11.2004H8.20039ZM9.22539 4.10005V7.10005V4.10005ZM22.9296 4.10005V7.10005L22.9329 7.10005L22.9296 4.10005ZM23.6861 4.43215L21.4754 6.46015L21.4755 6.4603L23.6861 4.43215ZM32.5298 14.0713L30.3192 16.0994L30.3218 16.1022L32.5298 14.0713ZM32.8004 14.7642H35.8004L35.8004 14.7612L32.8004 14.7642ZM8.20039 35.8751H11.2004H8.20039ZM22.9296 -0.949951H9.22539V5.05005H22.9296V-0.949951ZM9.22539 -0.949951C7.6142 -0.949951 6.069 -0.309908 4.92972 0.829376L9.17236 5.07202C9.18642 5.05795 9.2055 5.05005 9.22539 5.05005V-0.949951ZM4.92972 0.829376C3.79043 1.96866 3.15039 3.51386 3.15039 5.12505H9.15039C9.15039 5.10516 9.15829 5.08608 9.17236 5.07202L4.92972 0.829376ZM3.15039 5.12505V35.8751H9.15039V5.12505H3.15039ZM3.15039 35.8751C3.15039 37.4863 3.79044 39.0314 4.92972 40.1707L9.17236 35.9281C9.15829 35.914 9.15039 35.8949 9.15039 35.8751H3.15039ZM4.92972 40.1707C6.069 41.31 7.6142 41.9501 9.22539 41.9501V35.9501C9.2055 35.9501 9.18643 35.9422 9.17236 35.9281L4.92972 40.1707ZM9.22539 41.9501H31.7754V35.9501H9.22539V41.9501ZM31.7754 41.9501C33.3866 41.9501 34.9318 41.31 36.0711 40.1707L31.8284 35.9281C31.8144 35.9422 31.7953 35.9501 31.7754 35.9501V41.9501ZM36.0711 40.1707C37.2103 39.0314 37.8504 37.4863 37.8504 35.8751H31.8504C31.8504 35.8949 31.8425 35.914 31.8284 35.9281L36.0711 40.1707ZM37.8504 35.8751V14.7642H31.8504V35.8751H37.8504ZM37.8504 14.7634C37.85 13.2425 37.2791 11.7771 36.2506 10.6567L31.8306 14.7142C31.8433 14.7281 31.8504 14.7461 31.8504 14.7649L37.8504 14.7634ZM36.2512 10.6573L27.4075 1.0182L22.9864 5.0745L31.8301 14.7136L36.2512 10.6573ZM27.4076 1.01835C26.8383 0.397663 26.146 -0.097832 25.3749 -0.436676L22.9611 5.05639C22.9707 5.06057 22.9792 5.06669 22.9862 5.07435L27.4076 1.01835ZM25.3749 -0.436676C24.6038 -0.775522 23.7706 -0.950314 22.9283 -0.949951L22.9309 5.05005C22.9413 5.05004 22.9516 5.0522 22.9611 5.05639L25.3749 -0.436676ZM11.2004 5.12505C11.2004 5.64885 10.9923 6.1512 10.6219 6.52159L6.37929 2.27895C5.62445 3.03378 5.20039 4.05755 5.20039 5.12505H11.2004ZM10.6219 6.52159C10.2515 6.89197 9.7492 7.10005 9.22539 7.10005V1.10005C8.15789 1.10005 7.13412 1.52411 6.37929 2.27895L10.6219 6.52159ZM9.22539 7.10005H22.9296V1.10005H9.22539V7.10005ZM22.9329 7.10005C22.6589 7.10035 22.3878 7.04361 22.1368 6.93345L24.5488 1.43958C24.0374 1.21507 23.4849 1.09944 22.9263 1.10005L22.9329 7.10005ZM22.1368 6.93345C21.8859 6.82328 21.6606 6.66209 21.4754 6.46015L25.8968 2.40415C25.5192 1.99259 25.0602 1.6641 24.5488 1.43958L22.1368 6.93345ZM21.4755 6.4603L30.3192 16.0994L34.7404 12.0431L25.8967 2.404L21.4755 6.4603ZM30.3218 16.1022C29.9869 15.7381 29.8009 15.2617 29.8004 14.7671L35.8004 14.7612C35.7994 13.7532 35.4202 12.7822 34.7378 12.0403L30.3218 16.1022ZM29.8004 14.7642V35.8751H35.8004V14.7642H29.8004ZM29.8004 35.8751C29.8004 35.3513 30.0085 34.8489 30.3789 34.4785L34.6215 38.7212C35.3763 37.9663 35.8004 36.9425 35.8004 35.8751H29.8004ZM30.3789 34.4785C30.7492 34.1081 31.2516 33.9001 31.7754 33.9001V39.9001C32.8429 39.9001 33.8667 39.476 34.6215 38.7212L30.3789 34.4785ZM31.7754 33.9001H9.22539V39.9001H31.7754V33.9001ZM9.22539 33.9001C9.74919 33.9001 10.2515 34.1081 10.6219 34.4785L6.37929 38.7212C7.13412 39.476 8.1579 39.9001 9.22539 39.9001V33.9001ZM10.6219 34.4785C10.9923 34.8489 11.2004 35.3513 11.2004 35.8751H5.20039C5.20039 36.9426 5.62445 37.9663 6.37929 38.7212L10.6219 34.4785ZM11.2004 35.8751V5.12505H5.20039V35.8751H11.2004Z" fill="black" mask="url(#path-3-inside-2_252_418)"/>
<mask id="path-5-inside-3_252_418" fill="white">
<path d="M23.5762 4.30493V13.9399H33.2112"/>
</mask>
<path d="M26.5762 4.30493C26.5762 2.64808 25.233 1.30493 23.5762 1.30493C21.9193 1.30493 20.5762 2.64808 20.5762 4.30493H26.5762ZM23.5762 13.9399H20.5762C20.5762 15.5968 21.9193 16.9399 23.5762 16.9399V13.9399ZM33.2112 16.9399C34.868 16.9399 36.2112 15.5968 36.2112 13.9399C36.2112 12.2831 34.868 10.9399 33.2112 10.9399V16.9399ZM20.5762 4.30493V13.9399H26.5762V4.30493H20.5762ZM23.5762 16.9399H33.2112V10.9399H23.5762V16.9399Z" fill="#181818" mask="url(#path-5-inside-3_252_418)"/>
<path d="M16.9904 11.0272C16.9046 11.0605 16.813 11.0762 16.721 11.0734C16.5424 11.0679 16.373 10.9931 16.2486 10.8649C16.1242 10.7366 16.0547 10.565 16.0547 10.3863C16.0547 10.2077 16.1242 10.036 16.2486 9.90779C16.373 9.77955 16.5424 9.70477 16.721 9.6993C16.813 9.69648 16.9046 9.71217 16.9904 9.74542C17.0762 9.77868 17.1545 9.82884 17.2206 9.89291L18.2649 8.81614L17.2206 9.89291C17.2866 9.95699 17.3392 10.0337 17.375 10.1184C17.4109 10.2032 17.4294 10.2943 17.4294 10.3863C17.4294 10.4784 17.4109 10.5695 17.375 10.6542C17.3392 10.739 17.2866 10.8157 17.2206 10.8797C17.1545 10.9438 17.0762 10.994 16.9904 11.0272Z" fill="#181818" stroke="black" stroke-width="3"/>
<path d="M16.6734 14.8025C18.4142 14.8025 19.5461 15.9602 19.5461 17.3102V17.6327H13.8008V17.3102C13.8008 15.9587 14.9322 14.8025 16.6734 14.8025Z" fill="#181818" stroke="black" stroke-width="3"/>
</svg>
