<svg width="38" height="38" viewBox="0 0 38 38" fill="none" xmlns="http://www.w3.org/2000/svg">
<path d="M17.4325 10.4897C17.4357 11.3986 17.2525 12.2985 16.8942 13.1339C16.3802 14.3933 15.504 15.4718 14.3765 16.2328C13.2491 16.9938 11.9211 17.4031 10.5609 17.4089C9.19241 17.4088 7.85469 17.003 6.71688 16.2427C5.57906 15.4824 4.69224 14.4018 4.16856 13.1375C3.64488 11.8732 3.50786 10.482 3.77482 9.13987C4.04178 7.79771 4.70074 6.56485 5.66837 5.59719C6.31116 4.95234 7.0749 4.44069 7.91582 4.09158C8.75673 3.74248 9.65828 3.56277 10.5688 3.56277C11.4793 3.56277 12.3808 3.74248 13.2217 4.09158C14.0627 4.44069 14.8264 4.95234 15.4692 5.59719C16.7524 6.90431 17.4789 8.65804 17.4959 10.4897H17.4325ZM34.4534 10.4897C34.4571 11.3971 34.2795 12.2961 33.9309 13.1339C33.5506 13.977 33.0133 14.7401 32.3475 15.3822C31.0472 16.6807 29.2847 17.41 27.4471 17.41C25.6095 17.41 23.847 16.6807 22.5467 15.3822C21.2492 14.0846 20.5202 12.3247 20.5202 10.4897C20.5202 8.65465 21.2492 6.89478 22.5467 5.59719C23.1868 4.95041 23.9488 4.4369 24.7885 4.08632C25.6283 3.73574 26.5292 3.55505 27.4392 3.55469C29.281 3.55994 31.0457 4.29431 32.3475 5.59719C33.0058 6.23205 33.531 6.99163 33.8925 7.83163C34.2541 8.67163 34.4447 9.57522 34.4534 10.4897ZM17.4325 27.5105C17.4279 28.427 17.2338 29.3326 16.8625 30.1705C16.5252 31.0137 16.0186 31.7789 15.3742 32.4189C14.7309 33.0647 13.9658 33.5764 13.1232 33.9242C12.2806 34.2721 11.3774 34.4493 10.4659 34.4455C9.09741 34.4455 7.75969 34.0397 6.62188 33.2794C5.48406 32.5191 4.59724 31.4385 4.07356 30.1742C3.54988 28.9099 3.41286 27.5187 3.67982 26.1765C3.94678 24.8344 4.60574 23.6015 5.57337 22.6339C6.21616 21.989 6.9799 21.4774 7.82082 21.1283C8.66173 20.7791 9.56328 20.5994 10.4738 20.5994C11.3843 20.5994 12.2858 20.7791 13.1267 21.1283C13.9677 21.4774 14.7314 21.989 15.3742 22.6339C16.6574 23.941 17.3839 25.6947 17.4009 27.5264L17.4325 27.5105ZM34.4534 27.5105C34.4502 28.8776 34.0422 30.2132 33.2807 31.3486C32.5192 32.4841 31.4384 33.3684 30.1747 33.8902C28.9111 34.4119 27.5212 34.5476 26.1805 34.2801C24.8398 34.0126 23.6083 33.354 22.6416 32.3873C21.6749 31.4206 21.0163 30.1891 20.7488 28.8484C20.4813 27.5077 20.617 26.1178 21.1387 24.8541C21.6604 23.5905 22.5448 22.5097 23.6803 21.7482C24.8157 20.9867 26.1512 20.5787 27.5184 20.5755C29.3594 20.5842 31.1229 21.3181 32.4267 22.618C33.0706 23.2595 33.5812 24.022 33.929 24.8617C34.2769 25.7014 34.4551 26.6016 34.4534 27.5105Z" fill="black"/>
</svg>
