<svg width="41" height="41" viewBox="0 0 41 41" fill="none" xmlns="http://www.w3.org/2000/svg">
<path d="M18.803 35.8752H16.4079C10.2835 35.8752 7.22218 35.8752 5.3191 33.9362C3.41602 31.9972 3.41602 28.8761 3.41602 22.6356C3.41602 16.395 3.41602 13.2739 5.3191 11.335C7.22218 9.396 10.2835 9.396 16.4079 9.396H22.9047C29.0291 9.396 32.0921 9.396 33.9952 11.335C35.4592 12.8263 35.7958 15.0181 35.8744 18.7918" stroke="#181818" stroke-width="3" stroke-linecap="round" stroke-linejoin="round"/>
<path d="M34.1944 34.206L37.582 37.5834M27.332 9.39591L27.1612 8.86633C26.3156 6.2355 25.8936 4.92008 24.8874 4.16841C23.8795 3.41675 22.5436 3.41675 19.8666 3.41675H19.4173C16.7438 3.41675 15.4062 3.41675 14.3999 4.16841C13.392 4.92008 12.9701 6.2355 12.1244 8.86633L11.957 9.39591M35.9642 29.9403C35.9777 29.1407 35.8318 28.3463 35.5351 27.6036C35.2384 26.8609 34.7968 26.1847 34.236 25.6144C33.6753 25.0441 33.0066 24.5912 32.269 24.282C31.5314 23.9728 30.7396 23.8136 29.9398 23.8136C29.14 23.8136 28.3482 23.9728 27.6106 24.282C26.873 24.5912 26.2043 25.0441 25.6436 25.6144C25.0828 26.1847 24.6412 26.8609 24.3445 27.6036C24.0478 28.3463 23.9019 29.1407 23.9154 29.9403C23.942 31.5205 24.5884 33.027 25.7153 34.1351C26.8422 35.2432 28.3594 35.8642 29.9398 35.8642C31.5202 35.8642 33.0374 35.2432 34.1643 34.1351C35.2912 33.027 35.9376 31.5205 35.9642 29.9403Z" stroke="#181818" stroke-width="3" stroke-linecap="round" stroke-linejoin="round"/>
</svg>
