<svg width="41" height="41" viewBox="0 0 41 41" fill="none" xmlns="http://www.w3.org/2000/svg">
<g clip-path="url(#clip0_252_425)">
<path d="M34.1673 20.4999H17.9382M30.7506 25.6249L35.8756 20.4999L30.7506 15.3749M22.209 11.9583V10.2499C22.209 9.34376 21.849 8.47472 21.2083 7.83397C20.5675 7.19322 19.6985 6.83325 18.7923 6.83325H10.2507C9.34449 6.83325 8.47545 7.19322 7.8347 7.83397C7.19395 8.47472 6.83398 9.34376 6.83398 10.2499V30.7499C6.83398 31.6561 7.19395 32.5251 7.8347 33.1659C8.47545 33.8066 9.34449 34.1666 10.2507 34.1666H18.7923C19.6985 34.1666 20.5675 33.8066 21.2083 33.1659C21.849 32.5251 22.209 31.6561 22.209 30.7499V29.0416" stroke="black" stroke-width="3" stroke-linecap="round" stroke-linejoin="round"/>
</g>
<defs>
<clipPath id="clip0_252_425">
<rect width="41" height="41" fill="white"/>
</clipPath>
</defs>
</svg>
