<svg width="500" height="154" viewBox="0 0 500 154" fill="none" xmlns="http://www.w3.org/2000/svg">
<rect x="268.44" y="98.6001" width="13" height="12" fill="#181818"/>
<path d="M361.44 11.73C377.526 11.3661 403.44 13.1001 405.44 17.6V25.6001H361.44V11.73Z" fill="#181818"/>
<mask id="mask0_48_1066" style="mask-type:alpha" maskUnits="userSpaceOnUse" x="0" y="0" width="500" height="154">
<path d="M69.84 37.98C69.84 34.5 67.92 31.62 64.08 29.34C60.36 27.06 56.34 25.92 52.02 25.92C49.26 25.92 46.92 26.34 45 27.18C43.2 27.9 42.12 28.8 41.76 29.88C41.52 30.96 41.34 31.8 41.22 32.4C41.22 32.88 41.22 33.48 41.22 34.2C41.22 36.72 42.54 38.64 45.18 39.96C46.62 40.68 52.68 42.18 63.36 44.46C77.88 47.22 88.86 51.36 96.3 56.88C104.82 63.24 109.08 71.7 109.08 82.26V84.06C109.08 96.18 103.74 105.96 93.06 113.4C83.1 120.36 71.1 123.84 57.06 123.84C41.22 123.84 28.2 120.66 18 114.3C6 106.86 0 96.24 0 82.44H37.98C39.18 87.12 41.76 90.54 45.72 92.7C48.72 94.38 52.5 95.22 57.06 95.22C60.9 95.22 63.96 94.44 66.24 92.88C68.64 91.2 69.84 89.22 69.84 86.94C69.84 84.66 68.58 82.56 66.06 80.64C63.18 78.36 59.16 76.86 54 76.14C41.88 73.02 33.6 70.62 29.16 68.94C20.88 65.94 14.88 62.34 11.16 58.14C6.48 52.98 4.14 46.26 4.14 37.98L4.32 30.78C5.76 21.3 10.38 13.92 18.18 8.64C26.7 2.88 38.64 0 54 0C68.52 0 80.16 2.52 88.92 7.56C99.72 13.8 106.02 23.94 107.82 37.98H69.84Z" fill="black"/>
<path d="M94.7911 34.92H129.711L142.491 85.68L155.091 34.92H190.011L157.071 126.9C153.831 135.42 149.031 141.96 142.671 146.52C136.311 151.08 129.471 153.36 122.151 153.36C116.151 153.36 110.211 151.98 104.331 149.22V126.9C108.651 129.3 112.671 130.5 116.391 130.5C119.151 130.5 121.371 129.66 123.051 127.98C124.731 126.3 125.571 124.14 125.571 121.5C125.571 119.58 124.851 117.18 123.411 114.3L94.7911 34.92Z" fill="black"/>
<path d="M175.809 34.92H207.489V47.52C210.129 42.84 214.389 39.18 220.269 36.54C226.149 33.78 232.389 32.4 238.989 32.4C247.749 32.4 255.069 34.62 260.949 39.06C267.669 44.1 271.029 51.18 271.029 60.3V120.6H236.109V72.9C236.109 68.46 234.849 64.98 232.329 62.46C229.809 59.94 226.869 58.68 223.509 58.68C220.029 58.68 217.029 59.94 214.509 62.46C211.989 64.98 210.729 68.46 210.729 72.9V120.6H175.809V34.92Z" fill="black"/>
<path d="M342.94 41.2302C341.5 33.1902 340.272 33.96 334.512 30.96C331.392 29.4 327.612 28.62 323.172 28.62C316.452 28.62 311.172 31.92 307.332 38.52C303.612 45.12 301.752 52.92 301.752 61.92C301.752 70.92 303.492 78.54 306.972 84.78C310.932 91.74 316.332 95.22 323.172 95.22C328.812 95.22 333.252 93.96 336.492 91.44C339.852 88.8 342.792 82.62 345.312 72.9H383.472C381.792 88.98 375.672 101.52 365.112 110.52C354.672 119.4 340.692 123.84 323.172 123.84C305.052 123.84 290.472 119.22 279.432 109.98C266.232 98.94 259.632 82.38 259.632 60.3C259.632 39.54 266.172 23.94 279.252 13.5C290.412 4.5 305.052 0 323.172 0C339.012 0 352.212 3.54 362.772 10.62C375.012 18.9 381.912 31.2 383.472 47.52C377.66 40.7735 364.681 36.155 342.94 41.2302Z" fill="black"/>
<path d="M343.489 41.1001C291.038 53.5802 372.44 19.269 372.44 19.269C408.256 2.69719 419.533 24.2083 435.772 76.14L454.672 3.05999H499.132L457.912 120.6H413.452C397.552 73.6522 395.94 28.62 343.489 41.1001Z" fill="black"/>
</mask>
<g mask="url(#mask0_48_1066)">
<rect x="13.4399" y="11.6001" width="461" height="99" fill="#181818"/>
<rect x="103.44" y="110.6" width="63" height="43" fill="#EC6B2D"/>
<path d="M451.94 10.6001C437.94 -10.8998 550.44 -9.39988 550.44 -9.39988V96.6001H474.44C473.828 34.3443 465.94 32.1 451.94 10.6001Z" fill="#EC6B2D"/>
</g>
</svg>
